<svg width="415" height="103" viewBox="0 0 415 103" fill="none" xmlns="http://www.w3.org/2000/svg">
<g clip-path="url(#clip0)" filter="url(#filter0_d)">
<path d="M153.794 62.145C158.268 62.271 165.113 60.045 165.113 60.045V67.285C165.113 67.285 156.561 70.842 149.7 69.135C140.752 67.41 134.283 60.96 134.95 45.484C135.124 41.263 136.926 32.901 143.439 29.154C147.758 26.7154 152.735 25.6977 157.666 26.245C159.057 26.371 165.317 27.889 166.566 29.075L163.926 36.331C163.926 36.331 158.203 32.631 152.734 33.565C147.707 34.403 145.099 38.165 144.308 44.093C143.517 50.021 144.434 54.906 145.494 56.74C146.538 58.589 149.304 62.019 153.794 62.145Z" fill="white"/>
<path d="M179.482 24.206V68.674H170.645V24.269L170.851 24.206H179.482Z" fill="white"/>
<path d="M215.113 50.685C214.686 44.773 212.473 41.927 210.165 39.619C207.857 37.311 203.447 36.125 199.305 36.062C199.305 36.062 190.405 36.062 186.911 41.99C185.093 45.09 184.211 48.045 184.287 54.573C184.413 66.492 194.831 69.638 201.075 69.385C212.868 68.927 215.698 59.047 215.113 50.685ZM199.368 62.335C197.914 62.2709 196.523 61.7254 195.412 60.7841C194.302 59.8428 193.536 58.5591 193.234 57.135C192.191 51.935 193.297 47.366 194.024 46.006C195.684 42.971 200.224 42.718 202.402 43.572C204.568 44.426 205.548 46.765 205.959 49.231C207.066 56.012 205.565 62.812 199.368 62.335Z" fill="white"/>
<path d="M249.104 36.789V68.737H242.382C242.299 68.7383 242.218 68.7081 242.157 68.6524C242.095 68.5967 242.057 68.5197 242.05 68.437C241.924 67.33 241.481 63.615 240.406 64.975C236.391 70.049 230.463 70.381 225.056 68.469C221.515 67.22 219.456 63.269 219.397 59.169C219.255 57.269 219.397 36.785 219.397 36.785C219.318 36.848 227.886 36.579 227.886 36.579V56.279C227.886 56.279 227.428 64.779 236.58 61.938C239.58 61.021 240.074 54.238 240.074 54.238V36.789H249.104Z" fill="white"/>
<path d="M275.311 24V40.472C275.311 40.472 275.042 41.199 274.647 40.535C274.247 39.887 272.307 36.804 268.798 36.267C262.08 35.208 255.946 37.706 253.907 46.606C253.196 49.736 253.18 57.861 254.966 62.351C255.53 63.8893 256.441 65.277 257.628 66.4065C258.815 67.5359 260.246 68.3768 261.811 68.864C263.911 69.718 267.739 69.386 269.511 68.864C271.261 68.1661 272.79 67.0083 273.937 65.513C274.585 64.58 275.123 64.786 275.123 64.786L276.704 68.986H283.549V24.08C283.547 24 275.311 24 275.311 24ZM268.656 62.335C267.201 62.2709 265.81 61.7254 264.699 60.7841C263.589 59.8428 262.823 58.5592 262.522 57.135C261.479 51.935 262.585 47.366 263.312 46.006C264.972 42.971 269.512 42.718 271.69 43.572C273.856 44.426 274.836 46.765 275.247 49.231C276.355 56.012 274.853 62.809 268.656 62.335Z" fill="white"/>
<path d="M324.981 26.908V68.736H316.223V50.625H299.15V68.678H290.329V26.908C290.424 27.003 299.229 26.845 299.229 26.845V43.175H316.289C316.747 43.175 316.289 26.908 316.289 26.908H324.981Z" fill="white"/>
<path d="M385.778 65.765C384.197 67.615 380.498 68.8 378.917 69.053C377.336 69.322 367.725 70.175 364.042 67.409V60.438C366.69 61.706 369.506 62.5896 372.404 63.062C380.435 63.789 379.454 59.442 379.454 59.442C379.251 58.8928 378.935 58.3923 378.527 57.973C378.118 57.5537 377.626 57.2249 377.083 57.008C375.107 56.091 369.653 54.7 366.602 51.808C362.792 48.188 363.014 41.201 367.124 38.166C369.638 36.332 373.985 35.858 378.458 36.127C381.619 36.4441 384.709 37.2659 387.611 38.561L385.177 44.631C385.177 44.631 376.941 40.869 372.862 43.113C371.234 43.998 372.736 47.313 375.692 47.713C378.269 48.835 386.031 51.143 387.675 56.344C388.127 57.9524 388.19 59.6451 387.861 61.2829C387.531 62.9208 386.817 64.4569 385.778 65.765Z" fill="white"/>
<path d="M410.929 61.355V67.678C408.862 68.5574 406.658 69.071 404.416 69.196C398.216 69.596 394.267 68.596 393.145 61.687C393.019 60.833 393.145 42.97 393.145 42.97H388.735V39.413L393.477 36.647L395.911 29.865H401.511V36.789H410.537V42.97H401.653V58.857C401.719 59.8243 402.165 60.7261 402.893 61.3658C403.622 62.0056 404.574 62.3313 405.542 62.272C407.383 62.3733 409.224 62.0599 410.929 61.355V61.355Z" fill="white"/>
<path d="M361.07 50.685C360.659 44.773 358.446 41.927 356.138 39.619C353.83 37.311 349.42 36.125 345.262 36.062C345.262 36.062 336.378 36.062 332.884 41.99C331.05 45.09 330.184 48.045 330.244 54.573C330.386 66.492 340.788 69.638 347.044 69.385C358.841 68.927 361.671 59.047 361.07 50.685ZM345.325 62.336C343.872 62.2714 342.483 61.7253 341.375 60.7838C340.267 59.8423 339.504 58.5589 339.207 57.136C338.148 51.936 339.254 47.367 339.997 46.007C341.641 42.972 346.197 42.719 348.359 43.573C350.541 44.427 351.505 46.766 351.916 49.232C353.04 56.012 351.522 62.812 345.325 62.335V62.336Z" fill="white"/>
<path d="M115.992 62.4385C115.342 63.5285 113.182 67.1885 111.492 68.4985C111.162 68.7585 111.842 68.7385 110.242 72.7485C107.562 79.4985 98.4322 85.9985 91.8022 87.2485C85.8927 88.3354 79.8184 88.1376 73.9922 86.6685C74.0022 86.6485 74.0022 86.6385 73.9922 86.6285L73.6722 86.5985C73.2622 86.5085 72.8522 86.4185 72.4322 86.3185C69.6122 85.6585 64.5022 84.2585 61.0622 81.3785C56.8022 77.8185 52.1822 72.1885 53.4322 62.5585C54.4822 54.4785 59.9722 49.4485 66.8722 48.4985C70.4826 48.1145 74.1332 48.4337 77.6222 49.4385C82.1822 50.9385 87.8022 55.3185 87.4922 63.4385C87.4922 64.0585 87.5922 63.4485 87.7422 61.3185C88.1422 55.8285 84.4022 50.6785 79.7422 48.5585C70.9322 44.6285 61.3022 46.3785 56.9322 50.9985C52.5122 54.7185 50.3022 64.1885 51.7422 70.7485C54.9322 83.5185 67.6622 86.0985 73.6722 86.5985C73.7822 86.6185 73.8922 86.6485 73.9922 86.6685C73.9122 87.0185 70.9822 89.1385 67.6222 90.8785C59.7422 94.9385 47.0622 95.6885 37.8722 90.3185C33.4822 87.7485 27.9322 81.7485 26.8022 77.6285C26.5322 76.6285 26.4322 75.9385 25.9322 75.9385C22.4922 75.9385 15.3722 72.3785 12.6822 70.1885C7.03219 65.5885 1.24219 55.3785 5.43219 46.1885C7.05389 42.6852 9.39368 39.5619 12.2999 37.0209C15.2061 34.4799 18.6138 32.578 22.3022 31.4385C30.8022 28.5585 36.4922 29.6285 39.6222 32.7485C39.2442 31.9823 38.7133 31.3017 38.0622 30.7485C37.1922 30.0085 35.0622 29.5185 35.0622 29.3785C35.849 26.0421 37.4113 22.9381 39.6222 20.3185C39.6222 20.3185 39.5622 15.0585 39.6822 13.1885C39.7242 12.6137 39.9126 12.0593 40.2294 11.578C40.5462 11.0966 40.9809 10.7043 41.4922 10.4385C41.8722 10.1285 59.0522 0.768463 59.9922 0.248463C61.0952 -0.105323 62.2848 -0.08068 63.3722 0.31847C63.9322 0.68847 78.7422 9.93847 79.7422 10.9385C80.7422 11.9385 80.5622 13.9985 80.5622 13.9985L80.6222 32.1285C75.9922 31.7485 68.2422 34.5585 63.6222 37.5585C63.2422 38.0585 63.6222 14.1885 63.6222 14.1885C63.6222 14.1885 63.9922 4.37847 63.4322 3.12847C62.8722 1.87847 61.1222 2.18847 60.6222 2.37847C60.1222 2.56847 43.6222 11.2485 42.4922 11.9985C41.8029 12.3969 41.2411 12.983 40.8722 13.6885C40.6222 14.1285 40.9322 38.2485 40.9322 38.2485C40.9322 38.2485 35.5622 35.7485 27.8722 38.8185C25.2386 39.8531 23.0359 41.754 21.6272 44.2079C20.2184 46.6619 19.6876 49.5225 20.1222 52.3185C20.5329 48.8283 22.1957 45.6056 24.8022 43.2485C28.3022 39.6285 35.3722 38.2485 41.1222 40.2485C43.4692 41.1858 45.7451 42.292 47.9322 43.5585C49.5622 44.6285 51.0622 46.0585 50.6222 45.3185C50.1822 44.5585 45.0622 40.2485 45.0622 40.2485L59.8722 40.1285C59.8722 40.1285 54.9322 45.1285 54.5622 45.6285C54.1922 46.1285 52.8722 47.8785 53.3722 47.4385C53.8722 46.9985 56.3022 44.8785 56.3022 44.8785C60.3722 41.5585 65.8722 37.2485 72.6822 35.4385C82.8222 32.7385 89.5622 35.1885 94.2422 38.3185C99.5422 41.8485 101.242 45.3185 103.302 49.3185C102.682 43.6285 97.8722 37.7485 91.7422 34.6285C87.7722 32.5985 81.9322 32.1285 81.9322 32.1285C81.9322 32.1285 81.4922 16.8185 81.9322 17.1885C82.3722 17.5585 84.6822 19.6885 84.6822 19.6885C86.9157 22.3282 88.4982 25.4554 89.3022 28.8185C89.4322 30.1285 90.1822 29.9985 90.1822 29.9985C94.4322 29.9985 97.5622 30.6285 102.802 32.4385C108.062 34.2485 113.632 39.7385 115.802 43.8785C117.269 46.7462 118.049 49.9153 118.082 53.1361C118.115 56.3569 117.4 59.5413 115.992 62.4385V62.4385Z" fill="#3080F8"/>
<path d="M57.8722 13.1285C58.6343 13.1285 59.2522 12.5106 59.2522 11.7485C59.2522 10.9863 58.6343 10.3685 57.8722 10.3685C57.11 10.3685 56.4922 10.9863 56.4922 11.7485C56.4922 12.5106 57.11 13.1285 57.8722 13.1285Z" fill="#3080F8"/>
<path d="M59.1221 20.6285C59.1216 20.8091 59.0854 20.9878 59.0158 21.1544C58.9461 21.3211 58.8443 21.4723 58.7161 21.5996C58.5879 21.7268 58.4359 21.8275 58.2688 21.896C58.1017 21.9644 57.9227 21.9992 57.7421 21.9985C57.562 21.999 57.3836 21.9639 57.2172 21.8952C57.0507 21.8266 56.8995 21.7257 56.7722 21.5984C56.6448 21.4711 56.544 21.3198 56.4753 21.1534C56.4066 20.9869 56.3716 20.8085 56.3721 20.6285C56.3713 20.4479 56.4061 20.2689 56.4746 20.1017C56.543 19.9346 56.6437 19.7826 56.771 19.6544C56.8982 19.5263 57.0495 19.4244 57.2161 19.3548C57.3827 19.2851 57.5615 19.249 57.7421 19.2485C58.1078 19.2493 58.4584 19.3949 58.717 19.6535C58.9756 19.9122 59.1213 20.2627 59.1221 20.6285V20.6285Z" fill="#3080F8"/>
<path d="M59.2422 28.6885C59.2427 28.8685 59.2076 29.0469 59.139 29.2134C59.0703 29.3798 58.9694 29.531 58.8421 29.6584C58.7148 29.7857 58.5635 29.8866 58.3971 29.9552C58.2306 30.0239 58.0523 30.059 57.8722 30.0585C57.6916 30.0592 57.5126 30.0244 57.3455 29.956C57.1783 29.8875 57.0263 29.7868 56.8982 29.6596C56.77 29.5323 56.6682 29.3811 56.5985 29.2144C56.5288 29.0478 56.4927 28.8691 56.4922 28.6885C56.4927 28.5079 56.5288 28.3291 56.5985 28.1625C56.6682 27.9959 56.77 27.8446 56.8982 27.7174C57.0263 27.5901 57.1783 27.4894 57.3455 27.4209C57.5126 27.3525 57.6916 27.3177 57.8722 27.3185C58.0523 27.3179 58.2306 27.353 58.3971 27.4217C58.5635 27.4903 58.7148 27.5912 58.8421 27.7185C58.9694 27.8459 59.0703 27.9971 59.139 28.1636C59.2076 28.33 59.2427 28.5084 59.2422 28.6885V28.6885Z" fill="#3080F8"/>
<path d="M53.6822 14.8185C52.9922 15.0585 44.1222 18.4385 44.1222 18.4385C44.1222 18.4385 43.1222 18.2485 42.9922 17.7485C42.9922 17.7485 42.8022 16.1885 43.4322 15.7485C44.0622 15.3085 52.9322 11.3185 53.3722 11.1285C53.4661 11.0874 53.5686 11.0701 53.6707 11.0783C53.7728 11.0864 53.8713 11.1197 53.9574 11.1752C54.0435 11.2306 54.1146 11.3065 54.1643 11.396C54.214 11.4856 54.2408 11.586 54.2422 11.6885L54.3022 13.8785C54.3157 14.0814 54.2624 14.2831 54.1505 14.4528C54.0385 14.6226 53.874 14.751 53.6822 14.8185V14.8185Z" fill="#3080F8"/>
<path d="M54.3023 22.3785C54.3023 22.3785 54.2423 22.9385 53.3723 23.1285C52.5023 23.3185 45.1823 24.7485 44.9923 24.7485C44.8023 24.7485 43.8023 24.7485 43.6223 24.0585C43.4019 23.41 43.4019 22.7069 43.6223 22.0585C43.8723 21.4985 52.4923 19.4385 52.8723 19.3185C52.8723 19.3185 54.1223 19.7485 54.2423 20.1285C54.3232 20.8756 54.3433 21.6281 54.3023 22.3785V22.3785Z" fill="#3080F8"/>
<path d="M54.3722 30.2485C54.3235 30.4666 54.2058 30.6633 54.0364 30.8092C53.8671 30.9551 53.6552 31.0425 53.4322 31.0585C52.6822 31.0585 45.3022 31.5585 44.6822 31.4985C44.0622 31.4385 43.5622 30.4385 43.7422 29.4385C43.9222 28.4385 44.2422 28.6285 45.1822 28.4385C46.1222 28.2485 53.0622 26.9385 53.0622 26.9385C53.4322 26.9385 53.8722 26.6285 54.1822 27.8785C54.3692 28.6537 54.4334 29.4534 54.3722 30.2485V30.2485Z" fill="#3080F8"/>
</g>
<defs>
<filter id="filter0_d" x="0" y="0" width="414.929" height="102.135" filterUnits="userSpaceOnUse" color-interpolation-filters="sRGB">
<feFlood flood-opacity="0" result="BackgroundImageFix"/>
<feColorMatrix in="SourceAlpha" type="matrix" values="0 0 0 0 0 0 0 0 0 0 0 0 0 0 0 0 0 0 127 0"/>
<feOffset dy="4"/>
<feGaussianBlur stdDeviation="2"/>
<feColorMatrix type="matrix" values="0 0 0 0 0 0 0 0 0 0 0 0 0 0 0 0 0 0 0.25 0"/>
<feBlend mode="normal" in2="BackgroundImageFix" result="effect1_dropShadow"/>
<feBlend mode="normal" in="SourceGraphic" in2="effect1_dropShadow" result="shape"/>
</filter>
<clipPath id="clip0">
<rect width="406.929" height="94.135" fill="white" transform="translate(4)"/>
</clipPath>
</defs>
</svg>
